# xmcd
# 
# Track frame offsets:
#     150
#     16284
#     29711
#     44494
#     59647
#     72706
#     86508
#     98885
#     112763
#     128366
#     142918
#     155596
#     168204
#     187031
#     202634
#     216811
#     231220
#     245854
#     260557
#     271440
#     294767
# 
# Disc length: 4051
# 
# Revision: 2
# Processed by: cddbd v1.5.2PL0 Copyright (c) Steve Scherf et al.
# Submitted via: BonkEnc v1.0beta4
# 
DISCID=310fd115
DTITLE=04 AV Jazz - Jazz in America
DYEAR=1997
DGENRE=Jazz
TTITLE0=Glenn Miller - Chattanooga Choochoo
TTITLE1=Duke Ellington - Rockin' in rhythm
TTITLE2=Benny Goodman - Roll'em
TTITLE3=Franck Sinatra feat. Tommy Dorsey - Blue skies
TTITLE4=Joe Venuti - Sweet Sue, just you
TTITLE5=Nat King Cole - What is this thing called love
TTITLE6=The Mills Bothers - Sweet Georgia brown
TTITLE7=Coleman Hawkin - Boy and soul
TTITLE8=Nat King Cole - Embreaceable you
TTITLE9=Billie Holiday - As time goes by
TTITLE10=Errol Garner - Laura
TTITLE11=Duke Ellington - Sophisticated lady
TTITLE12=Sidney Bechet - Summertime
TTITLE13=Glenn Miller - Moonlight serenade
TTITLE14=Billie Holiday - The man I love
TTITLE15=Bix Beiderbecke - Ol' man river
TTITLE16=Count Basie - Oh! Lady be good
TTITLE17=Artie Shaw - Begin the beguine
TTITLE18=Benny Goodman - Stardust
TTITLE19=Teddy Wilson - China boy
TTITLE20=DATA
EXTD=YEAR: 1997
EXTT0=
EXTT1=
EXTT2=
EXTT3=
EXTT4=
EXTT5=
EXTT6=
EXTT7=
EXTT8=
EXTT9=
EXTT10=
EXTT11=
EXTT12=
EXTT13=
EXTT14=
EXTT15=
EXTT16=
EXTT17=
EXTT18=
EXTT19=
EXTT20=
PLAYORDER=
